PathFileType	4	(X/Y/Z)	s09c0302.trc
DataRate	CameraRate	NumFrames	NumMarkers	Units	OrigDataRate	OrigDataStartFrame	OrigNumFrames
200	200	6	50	mm	200	1000	2000
Frame#	Time	racr			lacr			c7			jug			rlel			rdr			llel			ldr			s2			lic			ric			lasi			rasi			rpsi			lpsi			rgt			lgt			rth1			rth2			rth3			rth4			rlfc			rmfc			rsh1			rsh2			rsh3			rsh4			rlmal			rmmal			rcal			rtoe			rmt5			lth1			lth2			lth4			lth3			llfc			lmfc			llmal			lmmal			lcal			lmt5			lsh1			lsh2			lsh3			lsh4			ltoe			SBIKE			LBIKE			RBIKE			
		X1	Y1	Z1	X2	Y2	Z2	X3	Y3	Z3	X4	Y4	Z4	X5	Y5	Z5	X6	Y6	Z6	X7	Y7	Z7	X8	Y8	Z8	X9	Y9	Z9	X10	Y10	Z10	X11	Y11	Z11	X12	Y12	Z12	X13	Y13	Z13	X14	Y14	Z14	X15	Y15	Z15	X16	Y16	Z16	X17	Y17	Z17	X18	Y18	Z18	X19	Y19	Z19	X20	Y20	Z20	X21	Y21	Z21	X22	Y22	Z22	X23	Y23	Z23	X24	Y24	Z24	X25	Y25	Z25	X26	Y26	Z26	X27	Y27	Z27	X28	Y28	Z28	X29	Y29	Z29	X30	Y30	Z30	X31	Y31	Z31	X32	Y32	Z32	X33	Y33	Z33	X34	Y34	Z34	X35	Y35	Z35	X36	Y36	Z36	X37	Y37	Z37	X38	Y38	Z38	X39	Y39	Z39	X40	Y40	Z40	X41	Y41	Z41	X42	Y42	Z42	X43	Y43	Z43	X44	Y44	Z44	X45	Y45	Z45	X46	Y46	Z46	X47	Y47	Z47	X48	Y48	Z48	X49	Y49	Z49	X50	Y50	Z50	
1000	5.0000	749.493356	1343.739969	-128.481720	684.219827	1305.827303	-465.286698	710.244634	1365.553072	-285.489985	709.516304	1231.934416	-284.689348	658.297399	1105.638028	-34.263356	724.288070	866.162259	-60.564275	533.505681	1062.023530	-497.054639	702.942297	886.406250	-436.516515	239.796304	1187.053184	-179.386230	341.677016	1185.566543	-357.280700	405.932253	1130.809925	-74.921972	372.501142	1116.686411	-348.858481	422.194593	1073.336671	-111.222201	288.615227	1200.707622	-126.123992	261.059223	1226.979941	-227.877399	339.762998	995.372344	-36.995128	283.920707	1088.573049	-403.499849	364.167309	870.864303	-56.971632	396.912363	789.971758	-70.397126	377.928024	703.530885	-77.925722	424.250371	794.054585	-94.290761	367.859377	607.697603	-104.690772	335.176906	593.652422	-198.794803	306.091576	528.104457	-65.529583	290.256741	440.765941	-77.357525	234.344191	373.256563	-72.547442	311.540303	432.647187	-110.721138	183.642757	282.129342	-70.150191	188.495119	290.132571	-146.787421	104.390479	294.369266	-109.817348	306.007615	122.106528	-131.851672	236.153975	159.222844	-61.457627	395.106234	999.814081	-422.503455	475.765341	971.462185	-426.050356	498.205694	998.913512	-411.419350	533.716436	903.727986	-437.687192	599.198588	822.726402	-431.918993	623.426034	802.605702	-332.920678	321.526160	579.056374	-408.018129	341.523653	585.548416	-334.740191	236.986155	574.182558	-365.459572	377.692867	474.472652	-433.145976	524.938553	755.986382	-443.214192	474.643630	685.881632	-428.627339	392.584892	651.218569	-420.293857	496.143416	666.778081	-402.039819	472.357200	458.577244	-367.377003	-64.377713	851.834789	-240.117214	21.143533	84.200961	-442.210378	21.127080	84.028121	-43.865059	
1001	5.0050	749.904328	1343.773631	-130.900484	682.702084	1305.748612	-467.023935	709.868428	1366.697948	-288.658307	708.698640	1233.095885	-287.108508	659.278921	1106.395155	-35.246698	724.433761	866.313316	-60.566453	531.515350	1061.805680	-497.085932	702.657702	886.528973	-436.725005	240.240258	1187.655220	-178.841038	340.746473	1186.507721	-357.324390	406.644396	1131.896473	-75.523986	372.304978	1117.975794	-349.579277	422.618644	1074.455017	-112.050216	289.193794	1201.626946	-125.818173	261.144457	1227.458185	-227.637877	341.349420	996.495481	-36.331443	282.134440	1087.954380	-402.804722	366.743528	871.674224	-56.677485	400.219318	791.190501	-70.475337	382.064000	704.534436	-78.121775	427.482997	795.588486	-94.580519	372.106361	608.850622	-104.388017	339.439697	594.694499	-198.584312	306.856753	530.318117	-65.363819	288.252445	443.453360	-77.127488	230.183351	377.888824	-72.497884	309.440371	434.682958	-110.355741	176.901023	288.021008	-69.985776	182.190341	296.041859	-146.943571	97.895274	301.680644	-110.015142	296.392480	126.028854	-131.641365	227.160385	164.488971	-61.314143	392.868064	996.786408	-421.610644	473.223576	968.346071	-426.386745	494.434270	995.913272	-414.301160	531.067017	900.238087	-437.373874	597.733996	820.061327	-431.633169	622.170610	800.738971	-332.732916	325.145904	570.593331	-407.478911	344.743940	578.102312	-334.087462	240.603632	562.524507	-365.422314	385.329299	469.189467	-433.527394	524.734302	751.676615	-442.968906	475.856344	680.548504	-428.200126	395.310395	644.120304	-419.490894	497.705663	662.190704	-401.402252	480.612039	457.490940	-367.865991	-64.359602	851.848068	-240.353686	21.142036	84.154121	-442.205230	21.137563	84.007873	-43.858842	
1002	5.0100	750.081839	1344.427991	-133.030831	681.218439	1305.415742	-468.822481	709.324713	1368.114925	-291.973913	707.851077	1234.541587	-289.255461	660.445804	1107.199302	-36.321325	724.618248	866.489852	-60.532283	530.057435	1061.454371	-497.031903	702.408378	886.594166	-436.922284	240.628859	1188.377894	-178.733127	339.930858	1187.140799	-357.365851	407.221677	1133.505122	-76.022460	372.067612	1118.820213	-350.056431	423.084470	1076.021209	-112.589438	289.572355	1202.589499	-125.806144	261.447722	1226.823378	-228.657716	342.803119	997.917056	-35.903204	280.731935	1086.680812	-402.256711	369.491496	872.693359	-56.664640	403.910808	792.680599	-70.531204	386.732535	705.815956	-78.361727	430.863493	797.432155	-94.889773	377.459812	610.115997	-103.788850	344.288398	595.724720	-198.380329	308.280491	532.915779	-65.236021	286.866891	446.824898	-76.995355	226.708905	383.038320	-72.464351	307.994596	437.044689	-110.014538	170.918631	294.535602	-69.832439	176.841526	302.363246	-147.103698	92.060455	309.909492	-110.279475	286.985146	130.172121	-131.443136	218.577035	170.184386	-61.234571	390.384701	993.143625	-420.742097	470.360731	964.349581	-426.950477	492.945265	992.303496	-414.967340	528.056716	895.843936	-436.991935	595.680120	816.469381	-431.167517	620.543766	797.938091	-332.698545	328.691777	561.337936	-407.288306	347.878156	569.984106	-333.603441	244.082589	549.962562	-365.595439	392.647924	463.058496	-433.673279	524.179873	746.533200	-442.786177	476.761885	674.396050	-427.844358	396.255047	636.581735	-419.589003	498.904319	656.861487	-400.848104	488.425708	455.849254	-368.339535	-64.352996	851.791599	-240.459013	21.182073	84.131751	-442.230662	21.170000	84.021622	-43.845904	
1003	5.0150	750.024271	1345.387272	-135.015265	679.571762	1305.049708	-470.705708	708.493649	1369.700213	-295.199445	707.073641	1236.168168	-291.113135	661.630388	1108.097069	-37.399217	724.806408	866.672508	-60.516487	528.766904	1061.054633	-497.114978	702.163467	886.593739	-437.148088	240.887443	1188.936223	-178.892036	339.400970	1187.454119	-357.680950	407.685500	1135.266330	-76.483369	371.925963	1119.471001	-350.745792	423.471659	1077.795233	-112.899975	289.799495	1203.563655	-126.092711	261.474267	1227.471778	-229.174752	344.127368	999.336426	-35.578272	279.590265	1084.876608	-401.807401	372.339023	873.793874	-56.668711	407.833551	794.313384	-70.668172	391.993039	707.203964	-78.634595	434.870228	799.708925	-94.849589	382.277946	610.989408	-104.316304	349.466296	596.891884	-198.184297	310.260390	535.741491	-65.124100	286.024802	450.251144	-76.829163	223.915034	388.562336	-72.414807	307.112894	439.775143	-109.606824	165.635895	301.528302	-69.697282	172.197606	309.277613	-147.317322	87.036271	318.841557	-110.293481	277.973204	134.855031	-131.210064	210.448566	176.433334	-61.133815	387.961762	989.191463	-419.870042	467.685962	959.930152	-427.174495	491.470911	988.584102	-416.635901	524.868687	890.989186	-436.520976	593.134617	812.220239	-431.191458	618.539840	794.389551	-332.555112	332.180833	551.655905	-407.298024	351.062052	561.207695	-333.496021	247.872877	537.041829	-365.778173	399.665824	456.119395	-434.092872	523.396676	740.883487	-442.683417	477.497339	667.664565	-427.610092	398.415126	627.661131	-419.217331	500.195474	650.912754	-400.723756	495.909632	453.019894	-368.708775	-64.399654	851.745536	-240.476234	21.167513	84.090600	-442.229595	21.176519	84.012576	-43.841598	
1004	5.0200	749.765546	1346.789719	-136.928427	677.865116	1304.704697	-472.727848	707.404792	1371.444963	-298.359063	706.464719	1237.970034	-292.773678	662.854973	1109.164304	-38.512817	724.991280	866.841110	-60.607199	527.661998	1060.621380	-497.225624	701.890265	886.629885	-437.418615	241.067998	1189.540424	-179.463019	339.081012	1187.478916	-358.376011	407.969925	1137.109151	-77.015148	371.729686	1119.688554	-351.287678	423.860621	1079.710827	-113.073502	289.904255	1204.555458	-126.752088	261.438216	1227.857042	-229.922953	345.303619	1001.052994	-35.321320	278.673675	1082.765477	-401.425620	375.324555	874.916626	-56.488940	411.975158	796.199185	-70.794446	397.632886	708.800741	-79.020995	438.940366	801.849718	-94.981024	387.961354	611.890438	-104.053702	354.957903	598.127341	-198.066080	312.836599	538.824120	-65.104289	285.817400	454.213109	-76.783231	221.782489	394.570431	-72.386418	306.891885	442.856045	-109.230736	161.254578	308.993940	-69.458915	168.184493	316.607386	-147.379759	82.736247	328.199828	-110.395631	269.270355	139.741428	-131.091623	202.813451	183.171163	-61.024794	385.627254	985.190474	-419.223460	465.054183	955.320504	-427.336560	489.239423	984.021635	-418.026436	521.634604	885.648557	-435.615116	590.197377	807.421555	-430.906571	616.259835	790.314371	-332.573599	335.772680	541.390107	-407.795485	354.252928	551.542211	-333.753866	251.903162	524.043012	-366.019369	406.360276	448.557203	-434.618486	522.594699	734.308891	-442.036149	478.187127	660.252476	-427.451012	400.403708	618.373623	-419.054867	500.378374	644.017370	-398.767333	502.818363	449.172899	-369.314616	-64.398013	851.730102	-240.573135	21.166077	84.074327	-442.235904	21.171783	84.021413	-43.853433	
1005	5.0250	749.141023	1348.505199	-138.723109	676.174875	1304.489116	-474.635456	705.979020	1373.344114	-301.325424	705.970133	1239.942214	-294.273124	663.994435	1110.276885	-39.753267	726.696648	866.999746	-60.780462	526.705606	1060.229104	-497.552767	701.580316	886.657804	-437.683745	241.045374	1190.090685	-180.328588	338.932599	1187.222086	-359.176021	408.088143	1139.106679	-77.629365	371.535884	1119.402031	-351.548153	423.956459	1081.573587	-113.337498	289.837842	1205.441723	-127.790912	261.304638	1228.359636	-231.063609	346.221404	1002.837571	-35.233150	277.942273	1080.313875	-401.151046	378.436397	876.151925	-56.259660	416.414843	797.849749	-70.798116	403.540152	710.633348	-79.636847	443.041257	804.299734	-95.004801	393.525596	612.842849	-104.321714	360.614730	599.473945	-197.946594	315.956791	542.071518	-65.195325	286.238556	458.442148	-76.768872	220.269921	400.879926	-72.354635	307.074512	446.196469	-109.017459	157.470847	316.936768	-69.376022	165.468986	324.300980	-147.471333	79.351327	338.251067	-110.308161	261.064710	145.027525	-130.899495	195.751861	190.309314	-60.931722	383.602830	981.078905	-418.569970	462.743562	950.778797	-427.294758	487.370779	978.774285	-418.066190	518.597512	880.193074	-434.853656	587.210638	802.289866	-430.620540	613.664901	785.783756	-332.513329	339.520464	530.728456	-408.233837	357.354313	541.784449	-334.134225	255.834817	510.877371	-366.717958	412.870539	440.360719	-434.974186	521.279608	727.720842	-442.351857	478.894733	652.665490	-427.380667	402.223638	609.054418	-419.251872	501.223692	637.084753	-398.391150	509.098694	444.494610	-369.705761	-64.395257	851.723062	-240.682385	21.159845	84.046390	-442.266602	21.169301	84.017123	-43.891868	
